<?xml version="1.0" encoding="UTF-8" standalone="no"?>
<!-- Created with Inkscape (http://www.inkscape.org/) -->

<svg
   xmlns:dc="http://purl.org/dc/elements/1.1/"
   xmlns:cc="http://creativecommons.org/ns#"
   xmlns:rdf="http://www.w3.org/1999/02/22-rdf-syntax-ns#"
   xmlns:svg="http://www.w3.org/2000/svg"
   xmlns="http://www.w3.org/2000/svg"
   xmlns:sodipodi="http://sodipodi.sourceforge.net/DTD/sodipodi-0.dtd"
   xmlns:inkscape="http://www.inkscape.org/namespaces/inkscape"
   width="180.12775"
   height="206.91248"
   id="svg8943"
   sodipodi:version="0.32"
   inkscape:version="0.91 r13725"
   version="1.0"
   sodipodi:docname="senyal_gencat.svg">
  <defs
     id="defs1369" />
  <sodipodi:namedview
     id="base"
     pagecolor="#ffffff"
     bordercolor="#666666"
     borderopacity="1.0"
     inkscape:pageopacity="0.0"
     inkscape:pageshadow="2"
     inkscape:zoom="2.1531834"
     inkscape:cx="140.20353"
     inkscape:cy="116.75708"
     inkscape:document-units="px"
     inkscape:current-layer="g4225"
     inkscape:window-width="1600"
     inkscape:window-height="758"
     inkscape:window-x="-4"
     inkscape:window-y="-4"
     showgrid="false"
     inkscape:window-maximized="1" />
  <metadata
     id="metadata1372">
    <rdf:RDF>
      <cc:Work
         rdf:about="">
        <dc:format>image/svg+xml</dc:format>
        <dc:type
           rdf:resource="http://purl.org/dc/dcmitype/StillImage" />
      </cc:Work>
    </rdf:RDF>
  </metadata>
  <g
     inkscape:label="Capa 1"
     inkscape:groupmode="layer"
     id="layer1"
     transform="translate(-263.3116,-222.4164)"
     style="display:inline">
    <g
       id="g15795">
      <path
         style="font-size:4.28030014px;letter-spacing:0.21701001;word-spacing:-0.0012841;fill:#000000;fill-opacity:1;fill-rule:nonzero;stroke:none;stroke-width:0.062;stroke-linecap:butt;stroke-linejoin:miter;stroke-miterlimit:4;stroke-dasharray:none"
         d="m 264.33734,292.37787 c -1.43612,-0.6155 9.64277,-22.7733 9.64277,-22.7733 0,0 6.9757,-7.7964 8.0015,-16.00297 0.82071,-8.20658 8.00148,-5.33424 8.00148,-5.33424 -2.25683,-6.77047 2.87233,-7.59119 2.87233,-7.59119 3.07742,0.82072 11.69442,-3.89814 11.69442,-3.89814 6.56525,-7.18077 25.64564,-13.33573 25.64564,-13.33573 l 0,-1.02591 -31.80061,0 c -9.84801,1.64142 -8.00148,3.28275 -12.51513,5.33435 -4.30844,2.05162 -3.07742,-6.36016 -3.89813,-4.51363 -1.4361,3.28262 -6.36016,5.12913 -6.97568,4.10333 -11.89949,-7.38597 -11.89949,-2.46202 -10.87369,0.8206 5.33425,9.6428 2.4619,11.89962 -0.61551,12.51513 2.25681,1.43611 4.51365,3.07753 3.89814,6.77046 -1.02582,1.02581 -2.87234,5.12916 -3.89814,10.0531 -0.20522,10.0531 -0.41029,34.46784 0.20521,34.87814 0.6154,0.41031 0.6154,0 0.6154,0"
         class="ps06 ps12 ps256"
         id="path3103"
         inkscape:connector-curvature="0" />
      <path
         style="font-size:4.28030014px;font-family:fnt0, GrotesqueMT, Arial;letter-spacing:0.21701001;word-spacing:-0.0012841;fill:#ffffff;fill-rule:nonzero;stroke:none;stroke-width:0.062;stroke-linecap:butt;stroke-linejoin:miter;stroke-miterlimit:4;stroke-dasharray:none"
         d="m 265.15805,225.69914 10.4634,9.64278 c -0.82062,1.64133 -2.87223,1.2309 -4.71875,0.20509 -2.05172,-1.231 -7.18076,-8.61697 -5.74465,-9.84787"
         class="ps05 ps12 ps256"
         id="path3105"
         inkscape:connector-curvature="0" />
      <path
         style="font-size:4.28030014px;font-family:fnt0, GrotesqueMT, Arial;letter-spacing:0.21701001;word-spacing:-0.0012841;fill:#ffffff;fill-rule:nonzero;stroke:none;stroke-width:0.062;stroke-linecap:butt;stroke-linejoin:miter;stroke-miterlimit:4;stroke-dasharray:none"
         d="m 279.51958,233.29021 c 0,0 -1.64132,-0.41031 -1.43611,0 0.4103,0.20519 0,-3.48785 -1.64131,-4.71875 1.4361,0.20509 3.69293,-1.02593 4.10335,-1.02593 -1.23102,2.05173 -1.02593,5.74468 -1.02593,5.74468"
         class="ps05 ps12 ps256"
         id="path3107"
         inkscape:connector-curvature="0" />
      <path
         style="font-size:4.28030014px;font-family:fnt0, GrotesqueMT, Arial;letter-spacing:0.21701001;word-spacing:-0.0012841;fill:#ffffff;fill-rule:nonzero;stroke:none;stroke-width:0.062;stroke-linecap:butt;stroke-linejoin:miter;stroke-miterlimit:4;stroke-dasharray:none"
         d="m 277.05766,241.90719 c -4.10334,9.43758 -10.2583,29.74898 -11.89961,38.36599 0,-19.0804 -3.89814,-30.98002 11.28411,-39.59701 0.6155,-0.20521 0.6155,0.61551 0.6155,1.23102"
         class="ps05 ps12 ps256"
         id="path3109"
         inkscape:connector-curvature="0" />
      <path
         style="font-size:4.28030014px;font-family:fnt0, GrotesqueMT, Arial;letter-spacing:0.21701001;word-spacing:-0.0012841;fill:#ffffff;fill-rule:nonzero;stroke:none;stroke-width:0.062;stroke-linecap:butt;stroke-linejoin:miter;stroke-miterlimit:4;stroke-dasharray:none"
         d="m 276.03186,237.59863 c 0,-1.64132 1.43611,-2.87221 3.07741,-2.87221 1.43624,0 2.87234,1.23089 2.87234,2.87221 0,1.43622 -1.4361,2.87233 -2.87234,2.87233 -1.6413,0 -3.07741,-1.43611 -3.07741,-2.87233"
         class="ps05 ps12 ps256"
         id="path3111"
         inkscape:connector-curvature="0" />
      <path
         style="font-size:4.28030014px;font-family:fnt0, GrotesqueMT, Arial;letter-spacing:0.21701001;word-spacing:-0.0012841;fill:#ffffff;fill-rule:nonzero;stroke:none;stroke-width:0.062;stroke-linecap:butt;stroke-linejoin:miter;stroke-miterlimit:4;stroke-dasharray:none"
         d="m 283.62292,235.13673 c 9.64281,-3.69306 29.95419,-9.43759 38.57118,-11.07892 -19.0805,-0.41041 -30.97999,-4.51364 -39.8022,10.46341 -0.20509,0.8207 0.61552,0.8207 1.23102,0.61551"
         class="ps05 ps12 ps256"
         id="path3113"
         inkscape:connector-curvature="0" />
      <path
         style="font-size:4.28030014px;font-family:fnt0, GrotesqueMT, Arial;letter-spacing:0.21701001;word-spacing:-0.0012841;fill:#ffffff;fill-rule:nonzero;stroke:none;stroke-width:0.062;stroke-linecap:butt;stroke-linejoin:miter;stroke-miterlimit:4;stroke-dasharray:none"
         d="m 281.16101,241.08647 c 2.25682,1.43623 5.94975,5.33437 5.33423,5.33437 -2.0516,-0.20522 -3.69292,1.23101 -4.10334,2.0516 0.20522,-2.46191 -1.02579,-5.74464 -1.23089,-7.38597"
         class="ps05 ps12 ps256"
         id="path3115"
         inkscape:connector-curvature="0" />
      <path
         style="font-size:4.28030014px;font-family:fnt0, GrotesqueMT, Arial;letter-spacing:0.21701001;word-spacing:-0.0012841;fill:#ffffff;fill-rule:nonzero;stroke:none;stroke-width:0.062;stroke-linecap:butt;stroke-linejoin:miter;stroke-miterlimit:4;stroke-dasharray:none"
         d="m 274.59563,238.00905 c 0,0 -0.8206,1.43611 -0.61552,1.23101 0.41044,-0.41041 -4.30843,-0.6155 -5.94973,0.61539 0.6155,-1.4361 0.8206,-3.89814 1.0258,-4.51353 1.64131,1.84641 5.53945,2.66713 5.53945,2.66713"
         class="ps05 ps12 ps256"
         id="path3117"
         inkscape:connector-curvature="0" />
    </g>
    <g
       id="g15825">
      <path
         style="font-size:4.28030014px;letter-spacing:0.21701001;word-spacing:-0.0012841;fill:#000025;fill-opacity:1;fill-rule:nonzero;stroke:none;stroke-width:0.062;stroke-linecap:butt;stroke-linejoin:miter;stroke-miterlimit:4;stroke-dasharray:none"
         d="m 289.98309,403.78276 c -3.48785,5.53946 1.64131,7.59108 1.64131,7.59108 3.07741,-0.61551 12.92544,4.10333 12.92544,4.10333 11.07889,8.61699 23.79924,12.30993 23.79924,12.30993 l -0.20522,1.23101 c 0,0 -22.15793,0.8206 -29.74899,-0.2052 -10.2583,-3.28263 -8.00148,-2.66713 -12.51513,-4.71875 -4.30844,-2.05172 -3.07742,6.36006 -3.89813,4.51365 -1.4361,-3.28263 -6.77048,-4.51365 -7.18078,-3.48783 -11.89961,8.20657 -11.89961,1.84652 -10.66859,-1.43624 9.64279,-9.84787 -0.4103,-11.89949 0.2051,-11.6944 2.05171,-1.4361 5.53955,-2.05161 4.92406,-5.74466 -1.02582,-1.2309 -4.10335,-6.77033 -5.12916,-11.4892 -1.64132,-10.4634 0,-35.28844 0,-35.28844 l 0.8206,0 c 2.46203,10.87368 13.74614,30.3645 15.18225,31.1851 2.87233,6.56537 2.66723,11.48931 2.66723,11.48931 1.64132,1.43612 2.25684,3.28263 7.18077,1.64131"
         class="ps06 ps12 ps256"
         id="path3119"
         inkscape:connector-curvature="0" />
      <path
         style="font-size:4.28030014px;font-family:fnt0, GrotesqueMT, Arial;letter-spacing:0.21701001;word-spacing:-0.0012841;fill:#ffffff;fill-rule:nonzero;stroke:none;stroke-width:0.062;stroke-linecap:butt;stroke-linejoin:miter;stroke-miterlimit:4;stroke-dasharray:none"
         d="m 265.15805,427.1716 10.4634,-9.64281 c -0.82062,-2.4619 -2.46191,-1.2309 -4.30844,-0.2051 -1.84652,1.23102 -7.59107,7.79629 -6.15496,9.84791"
         class="ps05 ps12 ps256"
         id="path3121"
         inkscape:connector-curvature="0" />
      <path
         style="font-size:4.28030014px;font-family:fnt0, GrotesqueMT, Arial;letter-spacing:0.21701001;word-spacing:-0.0012841;fill:#ffffff;fill-rule:nonzero;stroke:none;stroke-width:0.062;stroke-linecap:butt;stroke-linejoin:miter;stroke-miterlimit:4;stroke-dasharray:none"
         d="m 278.90418,419.17011 c 0,0 -1.02592,-0.20508 -0.82071,-0.4103 -0.6155,0.4103 -0.82071,3.07754 -1.64131,4.51365 1.4361,-0.20509 3.69293,1.0258 4.10335,1.0258 -1.23102,-2.05161 -1.64133,-5.12915 -1.64133,-5.12915"
         class="ps05 ps12 ps256"
         id="path3123"
         inkscape:connector-curvature="0" />
      <path
         style="font-size:4.28030014px;font-family:fnt0, GrotesqueMT, Arial;letter-spacing:0.21701001;word-spacing:-0.0012841;fill:#ffffff;fill-rule:nonzero;stroke:none;stroke-width:0.062;stroke-linecap:butt;stroke-linejoin:miter;stroke-miterlimit:4;stroke-dasharray:none"
         d="m 277.05766,410.14294 c -5.53945,-9.23251 -10.0531,-31.39043 -11.89961,-41.23832 -0.20521,19.0804 -3.28262,32.62132 11.28411,42.46922 0.6155,0 0.6155,-0.8206 0.6155,-1.2309"
         class="ps05 ps12 ps256"
         id="path3125"
         inkscape:connector-curvature="0" />
      <path
         style="font-size:4.28030014px;font-family:fnt0, GrotesqueMT, Arial;letter-spacing:0.21701001;word-spacing:-0.0012841;fill:#ffffff;fill-rule:nonzero;stroke:none;stroke-width:0.062;stroke-linecap:butt;stroke-linejoin:miter;stroke-miterlimit:4;stroke-dasharray:none"
         d="m 276.03186,414.45137 c 0,-1.64132 1.43611,-2.87234 3.07741,-2.87234 1.43624,0 2.87234,1.23102 2.87234,2.87234 0,1.64131 -1.4361,2.87232 -2.87234,2.87232 -1.6413,0 -3.07741,-1.23101 -3.07741,-2.87232"
         class="ps05 ps12 ps256"
         id="path3127"
         inkscape:connector-curvature="0" />
      <path
         style="font-size:4.28030014px;font-family:fnt0, GrotesqueMT, Arial;letter-spacing:0.21701001;word-spacing:-0.0012841;fill:#ffffff;fill-rule:nonzero;stroke:none;stroke-width:0.062;stroke-linecap:butt;stroke-linejoin:miter;stroke-miterlimit:4;stroke-dasharray:none"
         d="m 283.62292,414.65647 c 14.56674,-6.36006 22.97852,4.71886 35.28844,11.69453 -12.51501,-3.28263 -30.15928,-8.82221 -35.69874,-10.87383 l 0.4103,-0.8207"
         class="ps05 ps12 ps256"
         id="path3129"
         inkscape:connector-curvature="0" />
      <path
         style="font-size:4.28030014px;font-family:fnt0, GrotesqueMT, Arial;letter-spacing:0.21701001;word-spacing:-0.0012841;fill:#ffffff;fill-rule:nonzero;stroke:none;stroke-width:0.062;stroke-linecap:butt;stroke-linejoin:miter;stroke-miterlimit:4;stroke-dasharray:none"
         d="m 281.16101,410.75833 c 2.05161,-0.61539 5.94975,-5.33425 5.33423,-5.33425 -3.69292,-0.82071 -2.87232,-0.4103 -4.10334,-2.05161 0.20522,2.66712 -1.84639,5.94975 -1.23089,7.38586"
         class="ps05 ps12 ps256"
         id="path3131"
         inkscape:connector-curvature="0" />
      <path
         style="font-size:4.28030014px;font-family:fnt0, GrotesqueMT, Arial;letter-spacing:0.21701001;word-spacing:-0.0012841;fill:#ffffff;fill-rule:nonzero;stroke:none;stroke-width:0.062;stroke-linecap:butt;stroke-linejoin:miter;stroke-miterlimit:4;stroke-dasharray:none"
         d="m 275.00593,413.01515 c 0,0 0.2052,-1.2309 0.41042,-0.82061 0.2051,0.20521 -4.10334,-2.0516 -4.71886,-4.10334 -0.4103,1.64132 -2.66711,3.28264 -3.07742,3.69305 2.25682,0 7.38586,1.2309 7.38586,1.2309"
         class="ps05 ps12 ps256"
         id="path3133"
         inkscape:connector-curvature="0" />
    </g>
    <g
       id="g15805">
      <path
         style="font-size:4.28030014px;letter-spacing:0.21701001;word-spacing:-0.0012841;fill:#000000;fill-opacity:1;fill-rule:nonzero;stroke:none;stroke-width:0.062;stroke-linecap:butt;stroke-linejoin:miter;stroke-miterlimit:4;stroke-dasharray:none"
         d="m 440.77977,291.35207 c -0.41042,-2.25682 -10.25829,-21.7475 -10.25829,-21.7475 0,0 -7.7963,-10.46353 -7.5912,-14.56687 0.20521,-11.4892 -7.79629,-6.15495 -7.79629,-6.15495 3.07755,-5.94977 -2.87232,-8.20658 -2.87232,-8.20658 -1.64129,0.82072 -10.6686,-3.89814 -10.6686,-3.89814 -6.56527,-7.18077 -25.64564,-13.33573 -25.64564,-13.33573 l 0,-1.02591 35.08322,0 c 9.64281,1.64142 8.82221,5.94985 11.28412,5.12914 3.28275,-1.23089 1.23101,-4.92393 2.87233,-3.48772 3.07754,2.46192 4.92407,3.28263 5.33438,2.25683 11.8996,-7.38598 11.2841,-1.84652 10.46338,1.8464 -1.84653,3.28263 -3.69293,5.53946 -4.10323,7.38597 -0.6155,2.66714 0.8206,4.51365 2.66712,4.92395 -2.25682,1.43623 -5.74465,3.48784 -0.82071,6.97567 1.0258,1.02581 2.05173,5.12916 3.07754,9.8479 0.2051,10.05321 1.23101,38.57119 0.6155,38.98148 -0.6155,0.61551 -1.64131,-4.92394 -1.64131,-4.92394"
         class="ps06 ps12 ps256"
         id="path3135"
         inkscape:connector-curvature="0" />
      <path
         style="font-size:4.28030014px;font-family:fnt0, GrotesqueMT, Arial;letter-spacing:0.21701001;word-spacing:-0.0012841;fill:#ffffff;fill-rule:nonzero;stroke:none;stroke-width:0.062;stroke-linecap:butt;stroke-linejoin:miter;stroke-miterlimit:4;stroke-dasharray:none"
         d="m 438.72804,224.2629 -9.6428,9.64281 c -1.02581,1.6413 -2.05162,-2.05162 1.64131,-5.94976 3.28275,-3.48783 6.15508,-3.48783 8.00149,-3.69305"
         class="ps05 ps12 ps256"
         id="path3137"
         inkscape:connector-curvature="0" />
      <path
         style="font-size:4.28030014px;font-family:fnt0, GrotesqueMT, Arial;letter-spacing:0.21701001;word-spacing:-0.0012841;fill:#ffffff;fill-rule:nonzero;stroke:none;stroke-width:0.062;stroke-linecap:butt;stroke-linejoin:miter;stroke-miterlimit:4;stroke-dasharray:none"
         d="m 424.1613,233.4954 c 0,0 1.64131,-0.20519 1.43622,0 0.20509,-0.20519 -1.23102,-5.12916 0,-5.94987 -2.05174,0.20521 -1.23102,1.02593 -2.66724,1.02593 1.23102,2.05162 1.23102,4.92394 1.23102,4.92394"
         class="ps05 ps12 ps256"
         id="path3139"
         inkscape:connector-curvature="0" />
      <path
         style="font-size:4.28030014px;font-family:fnt0, GrotesqueMT, Arial;letter-spacing:0.21701001;word-spacing:-0.0012841;fill:#ffffff;fill-rule:nonzero;stroke:none;stroke-width:0.062;stroke-linecap:butt;stroke-linejoin:miter;stroke-miterlimit:4;stroke-dasharray:none"
         d="m 427.23883,241.29168 c 3.89814,10.46339 8.41179,31.39031 10.66861,39.59688 -6.56537,-15.59254 -18.8753,-22.5681 -12.51513,-39.59688 l 1.84652,0"
         class="ps05 ps12 ps256"
         id="path3141"
         inkscape:connector-curvature="0" />
      <path
         style="font-size:4.28030014px;font-family:fnt0, GrotesqueMT, Arial;letter-spacing:0.21701001;word-spacing:-0.0012841;fill:#ffffff;fill-rule:nonzero;stroke:none;stroke-width:0.062;stroke-linecap:butt;stroke-linejoin:miter;stroke-miterlimit:4;stroke-dasharray:none"
         d="m 423.34069,237.18833 c 0,-1.4361 1.2309,-2.87232 2.87223,-2.87232 1.64142,0 2.87232,1.43622 2.87232,2.87232 0,1.64132 -1.2309,2.87233 -2.87232,2.87233 -1.64133,0 -2.87223,-1.23101 -2.87223,-2.87233"
         class="ps05 ps12 ps256"
         id="path3143"
         inkscape:connector-curvature="0" />
      <path
         style="font-size:4.28030014px;font-family:fnt0, GrotesqueMT, Arial;letter-spacing:0.21701001;word-spacing:-0.0012841;fill:#ffffff;fill-rule:nonzero;stroke:none;stroke-width:0.062;stroke-linecap:butt;stroke-linejoin:miter;stroke-miterlimit:4;stroke-dasharray:none"
         d="m 422.51999,235.13673 c -9.64281,-3.69306 -29.95421,-9.43759 -38.57108,-11.07892 18.05458,-0.41041 33.85222,-3.48783 39.39178,9.43759 0,0.82061 -0.2052,1.84652 -0.8207,1.64133"
         class="ps05 ps12 ps256"
         id="path3145"
         inkscape:connector-curvature="0" />
      <path
         style="font-size:4.28030014px;font-family:fnt0, GrotesqueMT, Arial;letter-spacing:0.21701001;word-spacing:-0.0012841;fill:#ffffff;fill-rule:nonzero;stroke:none;stroke-width:0.062;stroke-linecap:butt;stroke-linejoin:miter;stroke-miterlimit:4;stroke-dasharray:none"
         d="m 422.93028,239.85545 c -2.87232,0.20521 -7.38597,1.23102 -7.59107,1.23102 2.25683,0 1.84653,4.10335 2.25683,4.92406 1.23101,-2.46203 5.12914,-4.51364 5.33424,-6.15508"
         class="ps05 ps12 ps256"
         id="path3147"
         inkscape:connector-curvature="0" />
      <path
         style="font-size:4.28030014px;font-family:fnt0, GrotesqueMT, Arial;letter-spacing:0.21701001;word-spacing:-0.0012841;fill:#ffffff;fill-rule:nonzero;stroke:none;stroke-width:0.062;stroke-linecap:butt;stroke-linejoin:miter;stroke-miterlimit:4;stroke-dasharray:none"
         d="m 430.52148,237.59863 c 0,0 1.02579,1.43622 0.61549,1.02593 0.8206,0.6155 3.28264,0.6155 5.12916,0.8206 -0.41043,-1.43611 -0.82072,-3.48785 -1.02594,-4.10324 -1.6413,1.84641 -4.71871,2.25671 -4.71871,2.25671"
         class="ps05 ps12 ps256"
         id="path3149"
         inkscape:connector-curvature="0" />
    </g>
    <g
       id="g15815">
      <path
         style="font-size:4.28030014px;letter-spacing:0.21701001;word-spacing:-0.0012841;fill:#000000;fill-opacity:1;fill-rule:nonzero;stroke:none;stroke-width:0.062;stroke-linecap:butt;stroke-linejoin:miter;stroke-miterlimit:4;stroke-dasharray:none"
         d="m 422.31477,424.09416 c -2.46191,-1.02579 -2.25681,2.25684 -12.10471,3.69294 l -31.1852,0.61551 0,-0.82072 c 0,0 15.79776,-5.74454 22.97863,-12.515 0,0 5.94975,-5.12916 13.1305,-5.53946 0,0 5.94989,-1.64133 2.46205,-8.617 0,0 6.77046,4.10335 6.77046,-4.92394 0,-4.10333 7.38598,-14.97716 7.38598,-14.97716 0,0 9.43759,-18.25966 9.64268,-20.72169 0,0 0.61552,-4.30844 1.23101,-3.69292 0.61551,0.41028 0.41042,26.87665 0.20521,36.92974 -1.0258,4.71886 -2.66713,8.82208 -3.48784,10.05311 -1.02581,2.46202 1.64132,4.51363 3.89814,5.94986 -1.84652,0.4103 -4.71874,3.48772 -4.10335,5.94974 0.41042,2.05162 1.64144,2.66713 3.48784,5.74467 1.02581,3.89814 3.28263,9.23238 -10.05308,3.28263 -1.43612,0 -1.02582,-2.46203 -5.74468,2.87232 -2.05161,-1.84651 -0.41031,-3.07753 -4.51364,-3.28263"
         class="ps06 ps12 ps256"
         id="path3151"
         inkscape:connector-curvature="0" />
      <path
         style="font-size:4.28030014px;font-family:fnt0, GrotesqueMT, Arial;letter-spacing:0.21701001;word-spacing:-0.0012841;fill:#ffffff;fill-rule:nonzero;stroke:none;stroke-width:0.062;stroke-linecap:butt;stroke-linejoin:miter;stroke-miterlimit:4;stroke-dasharray:none"
         d="m 441.19007,426.14578 -9.02729,-9.02728 c -2.25682,-1.02582 -2.46204,1.64131 1.23102,5.53945 2.25682,2.25681 5.33424,3.89814 7.79627,3.48783"
         class="ps05 ps12 ps256"
         id="path3153"
         inkscape:connector-curvature="0" />
      <path
         style="font-size:4.28030014px;font-family:fnt0, GrotesqueMT, Arial;letter-spacing:0.21701001;word-spacing:-0.0012841;fill:#ffffff;fill-rule:nonzero;stroke:none;stroke-width:0.062;stroke-linecap:butt;stroke-linejoin:miter;stroke-miterlimit:4;stroke-dasharray:none"
         d="m 426.82841,417.52879 c 0,0 1.02593,0.41042 0.82071,0.20521 0.20522,0 -1.23102,5.12915 -1.23102,6.15496 -2.0516,-0.20522 -2.2568,-1.23101 -3.69292,-1.23101 1.2309,-2.05163 4.10323,-5.12916 4.10323,-5.12916"
         class="ps05 ps12 ps256"
         id="path3155"
         inkscape:connector-curvature="0" />
      <path
         style="font-size:4.28030014px;font-family:fnt0, GrotesqueMT, Arial;letter-spacing:0.21701001;word-spacing:-0.0012841;fill:#ffffff;fill-rule:nonzero;stroke:none;stroke-width:0.062;stroke-linecap:butt;stroke-linejoin:miter;stroke-miterlimit:4;stroke-dasharray:none"
         d="m 429.08524,409.117 c 6.15495,-10.05309 9.6428,-34.87813 11.69453,-43.0847 -10.87381,22.363 -19.2856,28.31288 -13.33584,42.87963 l 1.64131,0.20507"
         class="ps05 ps12 ps256"
         id="path3157"
         inkscape:connector-curvature="0" />
      <path
         style="font-size:4.28030014px;font-family:fnt0, GrotesqueMT, Arial;letter-spacing:0.21701001;word-spacing:-0.0012841;fill:#ffffff;fill-rule:nonzero;stroke:none;stroke-width:0.062;stroke-linecap:butt;stroke-linejoin:miter;stroke-miterlimit:4;stroke-dasharray:none"
         d="m 426.82841,413.22035 c 0,-1.64132 1.23102,-2.87233 2.87233,-2.87233 1.43623,0 2.87235,1.23101 2.87235,2.87233 0,1.64132 -1.43612,2.87233 -2.87235,2.87233 -1.64131,0 -2.87233,-1.23101 -2.87233,-2.87233"
         class="ps05 ps12 ps256"
         id="path3159"
         inkscape:connector-curvature="0" />
      <path
         style="font-size:4.28030014px;font-family:fnt0, GrotesqueMT, Arial;letter-spacing:0.21701001;word-spacing:-0.0012841;fill:#ffffff;fill-rule:nonzero;stroke:none;stroke-width:0.062;stroke-linecap:butt;stroke-linejoin:miter;stroke-miterlimit:4;stroke-dasharray:none"
         d="m 425.59752,410.96354 c -3.28275,-1.02581 -4.92406,-1.84654 -7.59117,-1.23102 0.8207,0 1.6413,-3.69293 2.2568,-4.92396 1.23102,2.46205 5.12916,4.51366 5.33437,6.15498"
         class="ps05 ps12 ps256"
         id="path3161"
         inkscape:connector-curvature="0" />
      <path
         style="font-size:4.28030014px;font-family:fnt0, GrotesqueMT, Arial;letter-spacing:0.21701001;word-spacing:-0.0012841;fill:#ffffff;fill-rule:nonzero;stroke:none;stroke-width:0.062;stroke-linecap:butt;stroke-linejoin:miter;stroke-miterlimit:4;stroke-dasharray:none"
         d="m 432.98338,411.16874 c 0,0 0.41042,-1.43622 0.20521,-1.23101 0.4103,-0.4103 5.53945,-3.89814 4.71885,-3.89814 -0.61551,1.64133 2.87233,3.48784 2.66712,3.89814 -2.66712,0 -7.59118,1.23101 -7.59118,1.23101"
         class="ps05 ps12 ps256"
         id="path3163"
         inkscape:connector-curvature="0" />
      <path
         style="font-size:4.28030014px;font-family:fnt0, GrotesqueMT, Arial;letter-spacing:0.21701001;word-spacing:-0.0012841;fill:#ffffff;fill-rule:nonzero;stroke:none;stroke-width:0.062;stroke-linecap:butt;stroke-linejoin:miter;stroke-miterlimit:4;stroke-dasharray:none"
         d="m 389.28316,425.11998 c 14.97716,-2.66712 38.16077,-11.69442 36.72466,-12.10483 -10.87383,-4.71874 -17.64428,-1.2309 -28.51798,6.56537 l -8.20668,5.53946"
         class="ps05 ps12 ps256"
         id="path3165"
         inkscape:connector-curvature="0" />
    </g>
    <g
       id="g15846">
      <g
         id="g15842" />
      <g
         id="g15835">
        <path
           id="path3179"
           class="ps013 ps16 ps256"
           d="m 353.58441,422.65795 c 45.75184,0 82.8868,-43.49502 82.8868,-97.04326 0,-53.54822 -37.13496,-97.04323 -82.8868,-97.04323 -45.75195,0 -84.32301,43.49501 -84.32301,97.04323 0,53.54824 38.57106,97.04326 84.32301,97.04326 z"
           style="font-size:4.28030014px;letter-spacing:0.21701001;word-spacing:-0.0012841;fill:#ffffff;fill-opacity:1;stroke:#000000;stroke-width:7.79628897;stroke-linecap:butt;stroke-linejoin:miter;stroke-miterlimit:4;stroke-dasharray:none;stroke-opacity:1"
           inkscape:connector-curvature="0" />
      </g>
    </g>
  </g>
  <g
     transform="translate(-263.3116,-222.4164)"
     id="g4225"
     inkscape:groupmode="layer"
     inkscape:label="Capa 2"
     style="display:inline">
    <g
       id="g4227">
      <path
         id="path4229"
         class="ps06 ps12 ps256"
         d="m 264.33734,292.37787 c -1.43612,-0.6155 9.64277,-22.7733 9.64277,-22.7733 0,0 6.9757,-7.7964 8.0015,-16.00297 0.82071,-8.20658 8.00148,-5.33424 8.00148,-5.33424 -2.25683,-6.77047 2.87233,-7.59119 2.87233,-7.59119 3.07742,0.82072 11.69442,-3.89814 11.69442,-3.89814 6.56525,-7.18077 25.64564,-13.33573 25.64564,-13.33573 l 0,-1.02591 -31.80061,0 c -9.84801,1.64142 -8.00148,3.28275 -12.51513,5.33435 -4.30844,2.05162 -3.07742,-6.36016 -3.89813,-4.51363 -1.4361,3.28262 -6.36016,5.12913 -6.97568,4.10333 -11.89949,-7.38597 -11.89949,-2.46202 -10.87369,0.8206 5.33425,9.6428 2.4619,11.89962 -0.61551,12.51513 2.25681,1.43611 4.51365,3.07753 3.89814,6.77046 -1.02582,1.02581 -2.87234,5.12916 -3.89814,10.0531 -0.20522,10.0531 -0.41029,34.46784 0.20521,34.87814 0.6154,0.41031 0.6154,0 0.6154,0"
         style="font-size:4.28030014px;letter-spacing:0.21701001;word-spacing:-0.0012841;fill:#000000;fill-opacity:1;fill-rule:nonzero;stroke:none;stroke-width:0.062;stroke-linecap:butt;stroke-linejoin:miter;stroke-miterlimit:4;stroke-dasharray:none"
         inkscape:connector-curvature="0" />
      <path
         id="path4231"
         class="ps05 ps12 ps256"
         d="m 265.15805,225.69914 10.4634,9.64278 c -0.82062,1.64133 -2.87223,1.2309 -4.71875,0.20509 -2.05172,-1.231 -7.18076,-8.61697 -5.74465,-9.84787"
         style="font-size:4.28030014px;font-family:fnt0, GrotesqueMT, Arial;letter-spacing:0.21701001;word-spacing:-0.0012841;fill:#ffffff;fill-rule:nonzero;stroke:none;stroke-width:0.062;stroke-linecap:butt;stroke-linejoin:miter;stroke-miterlimit:4;stroke-dasharray:none"
         inkscape:connector-curvature="0" />
      <path
         id="path4233"
         class="ps05 ps12 ps256"
         d="m 279.51958,233.29021 c 0,0 -1.64132,-0.41031 -1.43611,0 0.4103,0.20519 0,-3.48785 -1.64131,-4.71875 1.4361,0.20509 3.69293,-1.02593 4.10335,-1.02593 -1.23102,2.05173 -1.02593,5.74468 -1.02593,5.74468"
         style="font-size:4.28030014px;font-family:fnt0, GrotesqueMT, Arial;letter-spacing:0.21701001;word-spacing:-0.0012841;fill:#ffffff;fill-rule:nonzero;stroke:none;stroke-width:0.062;stroke-linecap:butt;stroke-linejoin:miter;stroke-miterlimit:4;stroke-dasharray:none"
         inkscape:connector-curvature="0" />
      <path
         id="path4235"
         class="ps05 ps12 ps256"
         d="m 277.05766,241.90719 c -4.10334,9.43758 -10.2583,29.74898 -11.89961,38.36599 0,-19.0804 -3.89814,-30.98002 11.28411,-39.59701 0.6155,-0.20521 0.6155,0.61551 0.6155,1.23102"
         style="font-size:4.28030014px;font-family:fnt0, GrotesqueMT, Arial;letter-spacing:0.21701001;word-spacing:-0.0012841;fill:#ffffff;fill-rule:nonzero;stroke:none;stroke-width:0.062;stroke-linecap:butt;stroke-linejoin:miter;stroke-miterlimit:4;stroke-dasharray:none"
         inkscape:connector-curvature="0" />
      <path
         id="path4237"
         class="ps05 ps12 ps256"
         d="m 276.03186,237.59863 c 0,-1.64132 1.43611,-2.87221 3.07741,-2.87221 1.43624,0 2.87234,1.23089 2.87234,2.87221 0,1.43622 -1.4361,2.87233 -2.87234,2.87233 -1.6413,0 -3.07741,-1.43611 -3.07741,-2.87233"
         style="font-size:4.28030014px;font-family:fnt0, GrotesqueMT, Arial;letter-spacing:0.21701001;word-spacing:-0.0012841;fill:#ffffff;fill-rule:nonzero;stroke:none;stroke-width:0.062;stroke-linecap:butt;stroke-linejoin:miter;stroke-miterlimit:4;stroke-dasharray:none"
         inkscape:connector-curvature="0" />
      <path
         id="path4239"
         class="ps05 ps12 ps256"
         d="m 283.62292,235.13673 c 9.64281,-3.69306 29.95419,-9.43759 38.57118,-11.07892 -19.0805,-0.41041 -30.97999,-4.51364 -39.8022,10.46341 -0.20509,0.8207 0.61552,0.8207 1.23102,0.61551"
         style="font-size:4.28030014px;font-family:fnt0, GrotesqueMT, Arial;letter-spacing:0.21701001;word-spacing:-0.0012841;fill:#ffffff;fill-rule:nonzero;stroke:none;stroke-width:0.062;stroke-linecap:butt;stroke-linejoin:miter;stroke-miterlimit:4;stroke-dasharray:none"
         inkscape:connector-curvature="0" />
      <path
         id="path4241"
         class="ps05 ps12 ps256"
         d="m 281.16101,241.08647 c 2.25682,1.43623 5.94975,5.33437 5.33423,5.33437 -2.0516,-0.20522 -3.69292,1.23101 -4.10334,2.0516 0.20522,-2.46191 -1.02579,-5.74464 -1.23089,-7.38597"
         style="font-size:4.28030014px;font-family:fnt0, GrotesqueMT, Arial;letter-spacing:0.21701001;word-spacing:-0.0012841;fill:#ffffff;fill-rule:nonzero;stroke:none;stroke-width:0.062;stroke-linecap:butt;stroke-linejoin:miter;stroke-miterlimit:4;stroke-dasharray:none"
         inkscape:connector-curvature="0" />
      <path
         id="path4243"
         class="ps05 ps12 ps256"
         d="m 274.59563,238.00905 c 0,0 -0.8206,1.43611 -0.61552,1.23101 0.41044,-0.41041 -4.30843,-0.6155 -5.94973,0.61539 0.6155,-1.4361 0.8206,-3.89814 1.0258,-4.51353 1.64131,1.84641 5.53945,2.66713 5.53945,2.66713"
         style="font-size:4.28030014px;font-family:fnt0, GrotesqueMT, Arial;letter-spacing:0.21701001;word-spacing:-0.0012841;fill:#ffffff;fill-rule:nonzero;stroke:none;stroke-width:0.062;stroke-linecap:butt;stroke-linejoin:miter;stroke-miterlimit:4;stroke-dasharray:none"
         inkscape:connector-curvature="0" />
    </g>
    <g
       id="g4245">
      <path
         id="path4247"
         class="ps06 ps12 ps256"
         d="m 289.98309,403.78276 c -3.48785,5.53946 1.64131,7.59108 1.64131,7.59108 3.07741,-0.61551 12.92544,4.10333 12.92544,4.10333 11.07889,8.61699 23.79924,12.30993 23.79924,12.30993 l -0.20522,1.23101 c 0,0 -22.15793,0.8206 -29.74899,-0.2052 -10.2583,-3.28263 -8.00148,-2.66713 -12.51513,-4.71875 -4.30844,-2.05172 -3.07742,6.36006 -3.89813,4.51365 -1.4361,-3.28263 -6.77048,-4.51365 -7.18078,-3.48783 -11.89961,8.20657 -11.89961,1.84652 -10.66859,-1.43624 9.64279,-9.84787 -0.4103,-11.89949 0.2051,-11.6944 2.05171,-1.4361 5.53955,-2.05161 4.92406,-5.74466 -1.02582,-1.2309 -4.10335,-6.77033 -5.12916,-11.4892 -1.64132,-10.4634 0,-35.28844 0,-35.28844 l 0.8206,0 c 2.46203,10.87368 13.74614,30.3645 15.18225,31.1851 2.87233,6.56537 2.66723,11.48931 2.66723,11.48931 1.64132,1.43612 2.25684,3.28263 7.18077,1.64131"
         style="font-size:4.28030014px;letter-spacing:0.21701001;word-spacing:-0.0012841;fill:#000025;fill-opacity:1;fill-rule:nonzero;stroke:none;stroke-width:0.062;stroke-linecap:butt;stroke-linejoin:miter;stroke-miterlimit:4;stroke-dasharray:none"
         inkscape:connector-curvature="0" />
      <path
         id="path4249"
         class="ps05 ps12 ps256"
         d="m 265.15805,427.1716 10.4634,-9.64281 c -0.82062,-2.4619 -2.46191,-1.2309 -4.30844,-0.2051 -1.84652,1.23102 -7.59107,7.79629 -6.15496,9.84791"
         style="font-size:4.28030014px;font-family:fnt0, GrotesqueMT, Arial;letter-spacing:0.21701001;word-spacing:-0.0012841;fill:#ffffff;fill-rule:nonzero;stroke:none;stroke-width:0.062;stroke-linecap:butt;stroke-linejoin:miter;stroke-miterlimit:4;stroke-dasharray:none"
         inkscape:connector-curvature="0" />
      <path
         id="path4251"
         class="ps05 ps12 ps256"
         d="m 278.90418,419.17011 c 0,0 -1.02592,-0.20508 -0.82071,-0.4103 -0.6155,0.4103 -0.82071,3.07754 -1.64131,4.51365 1.4361,-0.20509 3.69293,1.0258 4.10335,1.0258 -1.23102,-2.05161 -1.64133,-5.12915 -1.64133,-5.12915"
         style="font-size:4.28030014px;font-family:fnt0, GrotesqueMT, Arial;letter-spacing:0.21701001;word-spacing:-0.0012841;fill:#ffffff;fill-rule:nonzero;stroke:none;stroke-width:0.062;stroke-linecap:butt;stroke-linejoin:miter;stroke-miterlimit:4;stroke-dasharray:none"
         inkscape:connector-curvature="0" />
      <path
         id="path4253"
         class="ps05 ps12 ps256"
         d="m 277.05766,410.14294 c -5.53945,-9.23251 -10.0531,-31.39043 -11.89961,-41.23832 -0.20521,19.0804 -3.28262,32.62132 11.28411,42.46922 0.6155,0 0.6155,-0.8206 0.6155,-1.2309"
         style="font-size:4.28030014px;font-family:fnt0, GrotesqueMT, Arial;letter-spacing:0.21701001;word-spacing:-0.0012841;fill:#ffffff;fill-rule:nonzero;stroke:none;stroke-width:0.062;stroke-linecap:butt;stroke-linejoin:miter;stroke-miterlimit:4;stroke-dasharray:none"
         inkscape:connector-curvature="0" />
      <path
         id="path4255"
         class="ps05 ps12 ps256"
         d="m 276.03186,414.45137 c 0,-1.64132 1.43611,-2.87234 3.07741,-2.87234 1.43624,0 2.87234,1.23102 2.87234,2.87234 0,1.64131 -1.4361,2.87232 -2.87234,2.87232 -1.6413,0 -3.07741,-1.23101 -3.07741,-2.87232"
         style="font-size:4.28030014px;font-family:fnt0, GrotesqueMT, Arial;letter-spacing:0.21701001;word-spacing:-0.0012841;fill:#ffffff;fill-rule:nonzero;stroke:none;stroke-width:0.062;stroke-linecap:butt;stroke-linejoin:miter;stroke-miterlimit:4;stroke-dasharray:none"
         inkscape:connector-curvature="0" />
      <path
         id="path4257"
         class="ps05 ps12 ps256"
         d="m 283.62292,414.65647 c 14.56674,-6.36006 22.97852,4.71886 35.28844,11.69453 -12.51501,-3.28263 -30.15928,-8.82221 -35.69874,-10.87383 l 0.4103,-0.8207"
         style="font-size:4.28030014px;font-family:fnt0, GrotesqueMT, Arial;letter-spacing:0.21701001;word-spacing:-0.0012841;fill:#ffffff;fill-rule:nonzero;stroke:none;stroke-width:0.062;stroke-linecap:butt;stroke-linejoin:miter;stroke-miterlimit:4;stroke-dasharray:none"
         inkscape:connector-curvature="0" />
      <path
         id="path4259"
         class="ps05 ps12 ps256"
         d="m 281.16101,410.75833 c 2.05161,-0.61539 5.94975,-5.33425 5.33423,-5.33425 -3.69292,-0.82071 -2.87232,-0.4103 -4.10334,-2.05161 0.20522,2.66712 -1.84639,5.94975 -1.23089,7.38586"
         style="font-size:4.28030014px;font-family:fnt0, GrotesqueMT, Arial;letter-spacing:0.21701001;word-spacing:-0.0012841;fill:#ffffff;fill-rule:nonzero;stroke:none;stroke-width:0.062;stroke-linecap:butt;stroke-linejoin:miter;stroke-miterlimit:4;stroke-dasharray:none"
         inkscape:connector-curvature="0" />
      <path
         id="path4261"
         class="ps05 ps12 ps256"
         d="m 275.00593,413.01515 c 0,0 0.2052,-1.2309 0.41042,-0.82061 0.2051,0.20521 -4.10334,-2.0516 -4.71886,-4.10334 -0.4103,1.64132 -2.66711,3.28264 -3.07742,3.69305 2.25682,0 7.38586,1.2309 7.38586,1.2309"
         style="font-size:4.28030014px;font-family:fnt0, GrotesqueMT, Arial;letter-spacing:0.21701001;word-spacing:-0.0012841;fill:#ffffff;fill-rule:nonzero;stroke:none;stroke-width:0.062;stroke-linecap:butt;stroke-linejoin:miter;stroke-miterlimit:4;stroke-dasharray:none"
         inkscape:connector-curvature="0" />
    </g>
    <g
       id="g4263">
      <path
         id="path4265"
         class="ps06 ps12 ps256"
         d="m 440.77977,291.35207 c -0.41042,-2.25682 -10.25829,-21.7475 -10.25829,-21.7475 0,0 -7.7963,-10.46353 -7.5912,-14.56687 0.20521,-11.4892 -7.79629,-6.15495 -7.79629,-6.15495 3.07755,-5.94977 -2.87232,-8.20658 -2.87232,-8.20658 -1.64129,0.82072 -10.6686,-3.89814 -10.6686,-3.89814 -6.56527,-7.18077 -25.64564,-13.33573 -25.64564,-13.33573 l 0,-1.02591 35.08322,0 c 9.64281,1.64142 8.82221,5.94985 11.28412,5.12914 3.28275,-1.23089 1.23101,-4.92393 2.87233,-3.48772 3.07754,2.46192 4.92407,3.28263 5.33438,2.25683 11.8996,-7.38598 11.2841,-1.84652 10.46338,1.8464 -1.84653,3.28263 -3.69293,5.53946 -4.10323,7.38597 -0.6155,2.66714 0.8206,4.51365 2.66712,4.92395 -2.25682,1.43623 -5.74465,3.48784 -0.82071,6.97567 1.0258,1.02581 2.05173,5.12916 3.07754,9.8479 0.2051,10.05321 1.23101,38.57119 0.6155,38.98148 -0.6155,0.61551 -1.64131,-4.92394 -1.64131,-4.92394"
         style="font-size:4.28030014px;letter-spacing:0.21701001;word-spacing:-0.0012841;fill:#000000;fill-opacity:1;fill-rule:nonzero;stroke:none;stroke-width:0.062;stroke-linecap:butt;stroke-linejoin:miter;stroke-miterlimit:4;stroke-dasharray:none"
         inkscape:connector-curvature="0" />
      <path
         id="path4267"
         class="ps05 ps12 ps256"
         d="m 438.72804,224.2629 -9.6428,9.64281 c -1.02581,1.6413 -2.05162,-2.05162 1.64131,-5.94976 3.28275,-3.48783 6.15508,-3.48783 8.00149,-3.69305"
         style="font-size:4.28030014px;font-family:fnt0, GrotesqueMT, Arial;letter-spacing:0.21701001;word-spacing:-0.0012841;fill:#ffffff;fill-rule:nonzero;stroke:none;stroke-width:0.062;stroke-linecap:butt;stroke-linejoin:miter;stroke-miterlimit:4;stroke-dasharray:none"
         inkscape:connector-curvature="0" />
      <path
         id="path4269"
         class="ps05 ps12 ps256"
         d="m 424.1613,233.4954 c 0,0 1.64131,-0.20519 1.43622,0 0.20509,-0.20519 -1.23102,-5.12916 0,-5.94987 -2.05174,0.20521 -1.23102,1.02593 -2.66724,1.02593 1.23102,2.05162 1.23102,4.92394 1.23102,4.92394"
         style="font-size:4.28030014px;font-family:fnt0, GrotesqueMT, Arial;letter-spacing:0.21701001;word-spacing:-0.0012841;fill:#ffffff;fill-rule:nonzero;stroke:none;stroke-width:0.062;stroke-linecap:butt;stroke-linejoin:miter;stroke-miterlimit:4;stroke-dasharray:none"
         inkscape:connector-curvature="0" />
      <path
         id="path4271"
         class="ps05 ps12 ps256"
         d="m 427.23883,241.29168 c 3.89814,10.46339 8.41179,31.39031 10.66861,39.59688 -6.56537,-15.59254 -18.8753,-22.5681 -12.51513,-39.59688 l 1.84652,0"
         style="font-size:4.28030014px;font-family:fnt0, GrotesqueMT, Arial;letter-spacing:0.21701001;word-spacing:-0.0012841;fill:#ffffff;fill-rule:nonzero;stroke:none;stroke-width:0.062;stroke-linecap:butt;stroke-linejoin:miter;stroke-miterlimit:4;stroke-dasharray:none"
         inkscape:connector-curvature="0" />
      <path
         id="path4273"
         class="ps05 ps12 ps256"
         d="m 423.34069,237.18833 c 0,-1.4361 1.2309,-2.87232 2.87223,-2.87232 1.64142,0 2.87232,1.43622 2.87232,2.87232 0,1.64132 -1.2309,2.87233 -2.87232,2.87233 -1.64133,0 -2.87223,-1.23101 -2.87223,-2.87233"
         style="font-size:4.28030014px;font-family:fnt0, GrotesqueMT, Arial;letter-spacing:0.21701001;word-spacing:-0.0012841;fill:#ffffff;fill-rule:nonzero;stroke:none;stroke-width:0.062;stroke-linecap:butt;stroke-linejoin:miter;stroke-miterlimit:4;stroke-dasharray:none"
         inkscape:connector-curvature="0" />
      <path
         id="path4275"
         class="ps05 ps12 ps256"
         d="m 422.51999,235.13673 c -9.64281,-3.69306 -29.95421,-9.43759 -38.57108,-11.07892 18.05458,-0.41041 33.85222,-3.48783 39.39178,9.43759 0,0.82061 -0.2052,1.84652 -0.8207,1.64133"
         style="font-size:4.28030014px;font-family:fnt0, GrotesqueMT, Arial;letter-spacing:0.21701001;word-spacing:-0.0012841;fill:#ffffff;fill-rule:nonzero;stroke:none;stroke-width:0.062;stroke-linecap:butt;stroke-linejoin:miter;stroke-miterlimit:4;stroke-dasharray:none"
         inkscape:connector-curvature="0" />
      <path
         id="path4277"
         class="ps05 ps12 ps256"
         d="m 422.93028,239.85545 c -2.87232,0.20521 -7.38597,1.23102 -7.59107,1.23102 2.25683,0 1.84653,4.10335 2.25683,4.92406 1.23101,-2.46203 5.12914,-4.51364 5.33424,-6.15508"
         style="font-size:4.28030014px;font-family:fnt0, GrotesqueMT, Arial;letter-spacing:0.21701001;word-spacing:-0.0012841;fill:#ffffff;fill-rule:nonzero;stroke:none;stroke-width:0.062;stroke-linecap:butt;stroke-linejoin:miter;stroke-miterlimit:4;stroke-dasharray:none"
         inkscape:connector-curvature="0" />
      <path
         id="path4279"
         class="ps05 ps12 ps256"
         d="m 430.52148,237.59863 c 0,0 1.02579,1.43622 0.61549,1.02593 0.8206,0.6155 3.28264,0.6155 5.12916,0.8206 -0.41043,-1.43611 -0.82072,-3.48785 -1.02594,-4.10324 -1.6413,1.84641 -4.71871,2.25671 -4.71871,2.25671"
         style="font-size:4.28030014px;font-family:fnt0, GrotesqueMT, Arial;letter-spacing:0.21701001;word-spacing:-0.0012841;fill:#ffffff;fill-rule:nonzero;stroke:none;stroke-width:0.062;stroke-linecap:butt;stroke-linejoin:miter;stroke-miterlimit:4;stroke-dasharray:none"
         inkscape:connector-curvature="0" />
    </g>
    <g
       id="g4281">
      <path
         id="path4283"
         class="ps06 ps12 ps256"
         d="m 422.31477,424.09416 c -2.46191,-1.02579 -2.25681,2.25684 -12.10471,3.69294 l -31.1852,0.61551 0,-0.82072 c 0,0 15.79776,-5.74454 22.97863,-12.515 0,0 5.94975,-5.12916 13.1305,-5.53946 0,0 5.94989,-1.64133 2.46205,-8.617 0,0 6.77046,4.10335 6.77046,-4.92394 0,-4.10333 7.38598,-14.97716 7.38598,-14.97716 0,0 9.43759,-18.25966 9.64268,-20.72169 0,0 0.61552,-4.30844 1.23101,-3.69292 0.61551,0.41028 0.41042,26.87665 0.20521,36.92974 -1.0258,4.71886 -2.66713,8.82208 -3.48784,10.05311 -1.02581,2.46202 1.64132,4.51363 3.89814,5.94986 -1.84652,0.4103 -4.71874,3.48772 -4.10335,5.94974 0.41042,2.05162 1.64144,2.66713 3.48784,5.74467 1.02581,3.89814 3.28263,9.23238 -10.05308,3.28263 -1.43612,0 -1.02582,-2.46203 -5.74468,2.87232 -2.05161,-1.84651 -0.41031,-3.07753 -4.51364,-3.28263"
         style="font-size:4.28030014px;letter-spacing:0.21701001;word-spacing:-0.0012841;fill:#000000;fill-opacity:1;fill-rule:nonzero;stroke:none;stroke-width:0.062;stroke-linecap:butt;stroke-linejoin:miter;stroke-miterlimit:4;stroke-dasharray:none"
         inkscape:connector-curvature="0" />
      <path
         id="path4285"
         class="ps05 ps12 ps256"
         d="m 441.19007,426.14578 -9.02729,-9.02728 c -2.25682,-1.02582 -2.46204,1.64131 1.23102,5.53945 2.25682,2.25681 5.33424,3.89814 7.79627,3.48783"
         style="font-size:4.28030014px;font-family:fnt0, GrotesqueMT, Arial;letter-spacing:0.21701001;word-spacing:-0.0012841;fill:#ffffff;fill-rule:nonzero;stroke:none;stroke-width:0.062;stroke-linecap:butt;stroke-linejoin:miter;stroke-miterlimit:4;stroke-dasharray:none"
         inkscape:connector-curvature="0" />
      <path
         id="path4287"
         class="ps05 ps12 ps256"
         d="m 426.82841,417.52879 c 0,0 1.02593,0.41042 0.82071,0.20521 0.20522,0 -1.23102,5.12915 -1.23102,6.15496 -2.0516,-0.20522 -2.2568,-1.23101 -3.69292,-1.23101 1.2309,-2.05163 4.10323,-5.12916 4.10323,-5.12916"
         style="font-size:4.28030014px;font-family:fnt0, GrotesqueMT, Arial;letter-spacing:0.21701001;word-spacing:-0.0012841;fill:#ffffff;fill-rule:nonzero;stroke:none;stroke-width:0.062;stroke-linecap:butt;stroke-linejoin:miter;stroke-miterlimit:4;stroke-dasharray:none"
         inkscape:connector-curvature="0" />
      <path
         id="path4289"
         class="ps05 ps12 ps256"
         d="m 429.08524,409.117 c 6.15495,-10.05309 9.6428,-34.87813 11.69453,-43.0847 -10.87381,22.363 -19.2856,28.31288 -13.33584,42.87963 l 1.64131,0.20507"
         style="font-size:4.28030014px;font-family:fnt0, GrotesqueMT, Arial;letter-spacing:0.21701001;word-spacing:-0.0012841;fill:#ffffff;fill-rule:nonzero;stroke:none;stroke-width:0.062;stroke-linecap:butt;stroke-linejoin:miter;stroke-miterlimit:4;stroke-dasharray:none"
         inkscape:connector-curvature="0" />
      <path
         id="path4291"
         class="ps05 ps12 ps256"
         d="m 426.82841,413.22035 c 0,-1.64132 1.23102,-2.87233 2.87233,-2.87233 1.43623,0 2.87235,1.23101 2.87235,2.87233 0,1.64132 -1.43612,2.87233 -2.87235,2.87233 -1.64131,0 -2.87233,-1.23101 -2.87233,-2.87233"
         style="font-size:4.28030014px;font-family:fnt0, GrotesqueMT, Arial;letter-spacing:0.21701001;word-spacing:-0.0012841;fill:#ffffff;fill-rule:nonzero;stroke:none;stroke-width:0.062;stroke-linecap:butt;stroke-linejoin:miter;stroke-miterlimit:4;stroke-dasharray:none"
         inkscape:connector-curvature="0" />
      <path
         id="path4293"
         class="ps05 ps12 ps256"
         d="m 425.59752,410.96354 c -3.28275,-1.02581 -4.92406,-1.84654 -7.59117,-1.23102 0.8207,0 1.6413,-3.69293 2.2568,-4.92396 1.23102,2.46205 5.12916,4.51366 5.33437,6.15498"
         style="font-size:4.28030014px;font-family:fnt0, GrotesqueMT, Arial;letter-spacing:0.21701001;word-spacing:-0.0012841;fill:#ffffff;fill-rule:nonzero;stroke:none;stroke-width:0.062;stroke-linecap:butt;stroke-linejoin:miter;stroke-miterlimit:4;stroke-dasharray:none"
         inkscape:connector-curvature="0" />
      <path
         id="path4295"
         class="ps05 ps12 ps256"
         d="m 432.98338,411.16874 c 0,0 0.41042,-1.43622 0.20521,-1.23101 0.4103,-0.4103 5.53945,-3.89814 4.71885,-3.89814 -0.61551,1.64133 2.87233,3.48784 2.66712,3.89814 -2.66712,0 -7.59118,1.23101 -7.59118,1.23101"
         style="font-size:4.28030014px;font-family:fnt0, GrotesqueMT, Arial;letter-spacing:0.21701001;word-spacing:-0.0012841;fill:#ffffff;fill-rule:nonzero;stroke:none;stroke-width:0.062;stroke-linecap:butt;stroke-linejoin:miter;stroke-miterlimit:4;stroke-dasharray:none"
         inkscape:connector-curvature="0" />
      <path
         id="path4297"
         class="ps05 ps12 ps256"
         d="m 389.28316,425.11998 c 14.97716,-2.66712 38.16077,-11.69442 36.72466,-12.10483 -10.87383,-4.71874 -17.64428,-1.2309 -28.51798,6.56537 l -8.20668,5.53946"
         style="font-size:4.28030014px;font-family:fnt0, GrotesqueMT, Arial;letter-spacing:0.21701001;word-spacing:-0.0012841;fill:#ffffff;fill-rule:nonzero;stroke:none;stroke-width:0.062;stroke-linecap:butt;stroke-linejoin:miter;stroke-miterlimit:4;stroke-dasharray:none"
         inkscape:connector-curvature="0" />
    </g>
    <g
       id="g4299">
      <g
         id="g4301">
        <path
           sodipodi:nodetypes="csszc"
           style="font-size:4.28030014px;font-family:fnt0, GrotesqueMT, Arial;letter-spacing:0.21701001;word-spacing:-0.0012841;fill:#ffffff;fill-opacity:1;fill-rule:nonzero;stroke:none;stroke-width:0.062;stroke-linecap:butt;stroke-linejoin:miter;stroke-miterlimit:4;stroke-dasharray:none"
           d="m 352.7637,414.67298 c 42.67441,0 75.31081,-34.07394 75.31081,-89.67378 0,-50.0604 -32.6364,-87.62206 -75.31081,-87.62206 -42.67441,0 -75.5159,37.66427 -75.5159,87.62206 0,49.95779 32.84149,89.67378 75.5159,89.67378"
           class="ps051 ps12 ps256"
           id="path4303"
           inkscape:connector-curvature="0" />
        <path
           style="font-size:4.28030014px;letter-spacing:0.21701001;word-spacing:-0.0012841;fill:none;stroke:#000000;stroke-width:3.03644967;stroke-linecap:butt;stroke-linejoin:miter;stroke-miterlimit:4;stroke-dasharray:none;stroke-opacity:1"
           d="m 353.7895,414.86167 c 41.2383,0 74.68023,-40.00729 74.68023,-88.22116 0,-48.41907 -33.44193,-89.24696 -74.68023,-89.24696 -41.44339,0 -76.11633,40.82789 -76.11633,89.24696 0,48.21387 34.67294,88.22116 76.11633,88.22116 z"
           class="ps013 ps15 ps256"
           id="path4305"
           inkscape:connector-curvature="0" />
      </g>
      <g
         id="g4307">
        <path
           id="path4309"
           d="m 308.84285,244.9789 -19.28125,18.625 0,123.25 19.28125,19.40625 0,-161.28125 z"
           style="font-size:4.28030014px;letter-spacing:0.21701001;word-spacing:-0.0012841;fill:#000000;fill-opacity:1;fill-rule:nonzero;stroke:none;stroke-width:0.148;stroke-linecap:butt;stroke-linejoin:miter;stroke-miterlimit:4;stroke-dasharray:none"
           inkscape:connector-curvature="0" />
        <path
           id="path4311"
           d="m 344.5616,231.01015 -19.28125,5.0625 0,179.90625 19.28125,5.0625 0,-190.03125 z"
           style="font-size:4.28030014px;letter-spacing:0.21701001;word-spacing:-0.0012841;fill:#000000;fill-opacity:1;fill-rule:nonzero;stroke:none;stroke-width:0.148;stroke-linecap:butt;stroke-linejoin:miter;stroke-miterlimit:4;stroke-dasharray:none"
           inkscape:connector-curvature="0" />
        <path
           id="path4313"
           d="m 360.96785,231.01015 -0.1875,189.40625 19.28125,-4.875 0,-181.03125 -19.09375,-3.5 z"
           style="font-size:4.28030014px;letter-spacing:0.21701001;word-spacing:-0.0012841;fill:#000000;fill-opacity:1;fill-rule:nonzero;stroke:none;stroke-width:0.148;stroke-linecap:butt;stroke-linejoin:miter;stroke-miterlimit:4;stroke-dasharray:none"
           inkscape:connector-curvature="0" />
        <path
           style="font-size:4.28030014px;letter-spacing:0.21701001;word-spacing:-0.0012841;fill:#000000;fill-opacity:1;fill-rule:nonzero;stroke:none;stroke-width:0.148;stroke-linecap:butt;stroke-linejoin:miter;stroke-miterlimit:4;stroke-dasharray:none"
           d="m 396.66913,243.73719 19.28559,16.09701 0,129.15871 -19.49081,16.86345 0,-161.92751"
           class="ps044 ps15 ps256"
           id="path4315"
           inkscape:connector-curvature="0" />
        <path
           style="font-size:4.28030014px;letter-spacing:0.21701001;word-spacing:-0.0012841;fill:none;stroke:#000000;stroke-width:7.79628897;stroke-linecap:butt;stroke-linejoin:miter;stroke-miterlimit:4;stroke-dasharray:none;stroke-opacity:1"
           d="m 353.58441,422.65795 c 45.75184,0 82.8868,-43.49502 82.8868,-97.04326 0,-53.54822 -37.13496,-97.04323 -82.8868,-97.04323 -45.75195,0 -84.32301,43.49501 -84.32301,97.04323 0,53.54824 38.57106,97.04326 84.32301,97.04326 z"
           class="ps013 ps16 ps256"
           id="path4317"
           inkscape:connector-curvature="0" />
      </g>
    </g>
  </g>
</svg>
